<svg width="22" height="22" viewBox="0 0 22 22" fill="none" xmlns="http://www.w3.org/2000/svg">
<mask id="mask0_210_124" style="mask-type:alpha" maskUnits="userSpaceOnUse" x="0" y="0" width="22" height="22">
<rect width="22" height="22" rx="4" fill="#D9D9D9"/>
</mask>
<g mask="url(#mask0_210_124)">
<rect width="22" height="22" rx="4" fill="#243253"/>
<mask id="path-3-inside-1_210_124" fill="white">
<path d="M22.5 10L6 16L9.5 27.5L24 22L22.5 10Z"/>
</mask>
<path d="M6 16L-15.8716 -44.1468L-72.8933 -23.4116L-55.2271 34.6343L6 16ZM22.5 10L86.0058 2.06178L76.0514 -77.5733L0.628444 -50.1468L22.5 10ZM24 22L46.6979 81.8398L93.7473 63.9935L87.5058 14.0618L24 22ZM9.5 27.5L-51.7271 46.1343L-31.7984 111.614L32.1979 87.3398L9.5 27.5ZM6 16L27.8716 76.1468L44.3716 70.1468L22.5 10L0.628444 -50.1468L-15.8716 -44.1468L6 16ZM22.5 10L-41.0058 17.9382L-39.5058 29.9382L24 22L87.5058 14.0618L86.0058 2.06178L22.5 10ZM24 22L1.30213 -37.8398L-13.1979 -32.3398L9.5 27.5L32.1979 87.3398L46.6979 81.8398L24 22ZM9.5 27.5L70.7271 8.86566L67.2271 -2.63434L6 16L-55.2271 34.6343L-51.7271 46.1343L9.5 27.5Z" fill="#2E3F68" mask="url(#path-3-inside-1_210_124)"/>
<mask id="path-5-inside-2_210_124" fill="white">
<path d="M14 22.5L0 11L-1 24.5L14 22.5Z"/>
</mask>
<path d="M14 22.5L0 11L-1 24.5L14 22.5Z" fill="#3C4E72"/>
<path d="M0 11L15.2337 -7.54543L-20.5167 -36.9119L-23.9344 9.22708L0 11ZM14 22.5L17.1719 46.2895L71.8901 38.9937L29.2337 3.95457L14 22.5ZM-1 24.5L-24.9344 22.7271L-27.1172 52.1947L2.17193 48.2895L-1 24.5ZM0 11L-15.2337 29.5454L-1.23375 41.0454L14 22.5L29.2337 3.95457L15.2337 -7.54543L0 11ZM14 22.5L10.8281 -1.28947L-4.17193 0.71053L-1 24.5L2.17193 48.2895L17.1719 46.2895L14 22.5ZM-1 24.5L22.9344 26.2729L23.9344 12.7729L0 11L-23.9344 9.22708L-24.9344 22.7271L-1 24.5Z" fill="#3C4E72" mask="url(#path-5-inside-2_210_124)"/>
<mask id="path-7-inside-3_210_124" fill="white">
<path d="M5.31625 12.5L2.81625 14C1.01533 7.47988 2.12825 4.73524 6.81625 1L8.31625 3.5C5.13136 5.98294 4.52977 7.98019 5.31625 12.5Z"/>
<path d="M13.2137 16.1112L13.5722 19.0046C19.8177 16.4066 21.2941 13.8392 21.3485 7.8453L18.4551 8.20379C18.4612 12.2422 17.2586 13.9464 13.2137 16.1112Z"/>
<path d="M9.39412 8.91391L7.01367 8.00096C6.40328 11.0808 7.01045 12.4859 9.45576 14.5037L10.3687 12.1233C9.32959 10.9923 9.27888 10.2594 9.39412 8.91391Z"/>
<path d="M12.1831 7.42L13.0001 5.00493C15.7603 6.50132 16.4542 7.86569 16.4462 11.036L14.0312 10.219C13.824 8.69718 13.2923 8.19026 12.1831 7.42Z"/>
</mask>
<path d="M2.81625 14L-219.846 75.5017L-138.934 368.44L121.665 212.081L2.81625 14ZM5.31625 12.5L124.165 210.581L260.066 129.04L232.897 -27.1007L5.31625 12.5ZM8.31625 3.5L150.343 185.679L311.589 59.9718L206.397 -115.349L8.31625 3.5ZM6.81625 1L204.897 -117.849L69.1785 -344.046L-137.132 -179.665L6.81625 1ZM13.5722 19.0046L-215.675 47.4091L-178.305 349.01L102.293 232.288L13.5722 19.0046ZM13.2137 16.1112L-95.7887 -187.554L-235.521 -112.768L-216.033 44.5158L13.2137 16.1112ZM18.4551 8.20379L-9.94946 -221.043L-212.855 -195.902L-212.545 8.55415L18.4551 8.20379ZM21.3485 7.8453L252.339 9.94052L254.732 -253.838L-7.05611 -221.402L21.3485 7.8453ZM7.01367 8.00096L89.7325 -207.681L-166.275 -305.865L-219.579 -36.9072L7.01367 8.00096ZM9.39412 8.91391L239.551 28.627L254.383 -144.534L92.1129 -206.768L9.39412 8.91391ZM10.3687 12.1233L226.05 94.8421L277.297 -38.7783L180.474 -144.163L10.3687 12.1233ZM9.45576 14.5037L-137.567 192.676L110.138 397.074L225.137 97.2226L9.45576 14.5037ZM13.0001 5.00493L123.092 -198.073L-117.955 -328.749L-205.818 -69.0187L13.0001 5.00493ZM12.1831 7.42L-206.635 -66.6037L-262.328 98.0261L-119.577 197.157L12.1831 7.42ZM14.0312 10.219L-214.858 41.3751L-195.556 183.178L-59.9925 229.037L14.0312 10.219ZM16.4462 11.036L-57.5774 229.854L246.635 332.766L247.445 11.6191L16.4462 11.036ZM2.81625 14L121.665 212.081L124.165 210.581L5.31625 12.5L-113.532 -185.581L-116.032 -184.081L2.81625 14ZM5.31625 12.5L232.897 -27.1007C234.137 -19.972 242.619 24.8872 224.854 79.1312C204.917 140.009 165.625 173.766 150.343 185.679L8.31625 3.5L-133.711 -178.679C-152.177 -164.283 -193.362 -128.286 -214.2 -64.6589C-232.865 -7.66551 -224.291 40.4522 -222.264 52.1007L5.31625 12.5ZM8.31625 3.5L206.397 -115.349L204.897 -117.849L6.81625 1L-191.265 119.849L-189.765 122.349L8.31625 3.5ZM6.81625 1L-137.132 -179.665C-149.666 -169.678 -195.267 -132.81 -217.323 -64.8916C-239.074 2.09033 -224.652 58.101 -219.846 75.5017L2.81625 14L225.479 -47.5017C228.484 -36.6211 242.562 14.7572 222.089 77.803C201.311 141.785 158.611 175.414 150.764 181.665L6.81625 1ZM13.5722 19.0046L242.819 -9.39994L242.461 -12.2933L13.2137 16.1112L-216.033 44.5158L-215.675 47.4091L13.5722 19.0046ZM13.2137 16.1112L122.216 219.776C132.641 214.197 175.826 191.309 209.222 141.497C246.506 85.886 249.49 31.2682 249.455 7.85344L18.4551 8.20379L-212.545 8.55415C-212.574 -10.8222 -210.188 -62.5687 -174.515 -115.776C-142.73 -163.186 -102.168 -184.14 -95.7887 -187.554L13.2137 16.1112ZM18.4551 8.20379L46.8597 237.451L49.753 237.092L21.3485 7.8453L-7.05611 -221.402L-9.94946 -221.043L18.4551 8.20379ZM21.3485 7.8453L-209.642 5.75007C-209.551 -4.28212 -209.366 -58.6339 -171.765 -114.416C-134.715 -169.382 -85.571 -189.943 -75.1487 -194.278L13.5722 19.0046L102.293 232.288C118.961 225.354 171.966 202.21 211.329 143.813C251.243 84.599 252.194 25.9666 252.339 9.94052L21.3485 7.8453ZM7.01367 8.00096L-75.7051 223.683L-73.3247 224.596L9.39412 8.91391L92.1129 -206.768L89.7325 -207.681L7.01367 8.00096ZM9.39412 8.91391L-220.763 -10.7992C-220.92 -8.96505 -225.09 26.5412 -214.114 68.7433C-201.456 117.415 -176.287 150.395 -159.736 168.409L10.3687 12.1233L180.474 -144.163C195.985 -127.279 220.609 -95.2311 233.011 -47.5453C243.731 -6.32874 239.593 28.1383 239.551 28.627L9.39412 8.91391ZM10.3687 12.1233L-205.313 -70.5955L-206.226 -68.2151L9.45576 14.5037L225.137 97.2226L226.05 94.8421L10.3687 12.1233ZM9.45576 14.5037L156.478 -163.669C164.372 -157.155 201.238 -126.912 222.621 -71.4579C245.105 -13.1472 236.861 36.4854 233.606 52.9092L7.01367 8.00096L-219.579 -36.9072C-223.444 -17.4036 -231.69 34.4715 -208.443 94.7592C-186.298 152.19 -147.906 184.145 -137.567 192.676L9.45576 14.5037ZM13.0001 5.00493L-205.818 -69.0187L-206.635 -66.6037L12.1831 7.42L231.002 81.4436L231.818 79.0286L13.0001 5.00493ZM12.1831 7.42L-119.577 197.157C-119.98 196.877 -149.151 178.058 -174.032 143.494C-202.818 103.505 -211.766 64.0929 -214.858 41.3751L14.0312 10.219L242.92 -20.937C239.621 -45.1767 230.304 -85.6036 200.923 -126.419C175.447 -161.809 145.456 -181.267 143.944 -182.317L12.1831 7.42ZM14.0312 10.219L-59.9925 229.037L-57.5774 229.854L16.4462 11.036L90.4699 -207.782L88.0548 -208.599L14.0312 10.219ZM16.4462 11.036L247.445 11.6191C247.479 -1.78564 247.394 -51.7359 217.327 -105.445C185.764 -161.826 140.572 -188.597 123.092 -198.073L13.0001 5.00493L-97.0921 208.083C-111.811 200.103 -155.276 174.763 -185.804 120.231C-214.836 68.3703 -214.579 20.6874 -214.553 10.453L16.4462 11.036Z" fill="white" mask="url(#path-7-inside-3_210_124)"/>
</g>
</svg>
